<svg xmlns="http://www.w3.org/2000/svg" viewBox="0 0 1600 1000">
  <rect width="1600" height="1000" rx="40" fill="#f4f6fb"/>
  <rect x="80" y="140" width="1440" height="760" rx="36" fill="#ffffff"/>
  <rect x="160" y="240" width="420" height="240" rx="24" fill="#dfe8ff"/>
  <rect x="650" y="220" width="720" height="320" rx="30" fill="#eef5f2"/>
  <rect x="180" y="560" width="540" height="220" rx="24" fill="#fff7eb"/>
  <rect x="770" y="580" width="420" height="180" rx="24" fill="#f1eefc"/>
  <circle cx="1320" cy="320" r="110" fill="#9bc1ff" opacity="0.35"/>
  <rect x="720" y="272" width="220" height="16" rx="8" fill="#51607a"/>
  <rect x="720" y="304" width="340" height="14" rx="7" fill="#8ba0b7"/>
  <rect x="720" y="340" width="300" height="14" rx="7" fill="#8ba0b7"/>
  <rect x="720" y="376" width="240" height="14" rx="7" fill="#8ba0b7"/>
  <rect x="720" y="438" width="160" height="48" rx="20" fill="#3253b8"/>
  <rect x="910" y="438" width="160" height="48" rx="20" fill="#6c7e95"/>
  <rect x="230" y="620" width="120" height="120" rx="24" fill="#3253b8"/>
  <rect x="380" y="620" width="120" height="120" rx="24" fill="#6cb29f"/>
  <rect x="530" y="620" width="120" height="120" rx="24" fill="#f3b17d"/>
</svg>